<?xml version="1.0" standalone="no"?>
<!DOCTYPE svg PUBLIC "-//W3C//DTD SVG 20010904//EN"
 "http://www.w3.org/TR/2001/REC-SVG-20010904/DTD/svg10.dtd">
<svg version="1.0" xmlns="http://www.w3.org/2000/svg"
 width="256.000000pt" height="256.000000pt" viewBox="0 0 256.000000 256.000000"
 preserveAspectRatio="xMidYMid meet">

<g transform="translate(0.000000,256.000000) scale(0.100000,-0.100000)"
fill="#000000" stroke="none">
<path d="M870 2533 c-110 -9 -305 -48 -413 -84 -198 -65 -322 -141 -391 -241
-32 -46 -39 -66 -43 -120 -7 -90 20 -151 102 -226 377 -345 1470 -357 1895
-21 131 103 163 242 83 362 -137 205 -554 341 -1033 335 -85 -1 -175 -3 -200
-5z"/>
<path d="M2138 1882 c-25 -111 -180 -235 -384 -308 -211 -76 -400 -106 -664
-106 -258 0 -447 27 -642 92 -196 66 -354 177 -404 285 l-24 50 0 -185 c0
-201 7 -233 66 -303 170 -203 677 -335 1144 -300 l151 12 59 54 c75 69 135 94
193 80 23 -6 50 -14 60 -18 11 -5 17 -3 17 6 0 29 55 89 103 114 44 22 64 25
147 25 109 0 116 4 161 90 21 40 24 61 27 200 2 85 2 175 0 200 -3 45 -3 45
-10 12z"/>
<path d="M22 1210 c3 -225 8 -242 93 -325 91 -88 233 -158 429 -210 138 -37
273 -55 464 -62 l172 -6 0 45 c0 60 40 139 88 172 21 14 44 26 51 26 8 0 11 6
6 18 -3 9 -11 37 -17 62 l-10 45 -212 1 c-228 1 -351 15 -526 59 -264 67 -452
182 -516 317 l-24 53 2 -195z"/>
<path d="M1880 1097 l-13 -83 -59 -27 -60 -26 -68 49 c-37 28 -72 50 -77 50
-5 0 -31 -22 -58 -50 l-49 -50 50 -72 50 -73 -24 -61 -24 -61 -85 -13 -84 -12
3 -76 3 -76 81 -14 80 -14 26 -59 26 -58 -49 -70 c-27 -38 -49 -73 -49 -78 0
-5 22 -31 50 -58 l50 -49 73 52 74 51 59 -24 59 -24 14 -85 14 -86 74 0 c50 0
75 4 77 13 3 6 10 45 18 85 l13 73 59 24 58 24 71 -50 71 -50 55 55 54 54 -51
69 -51 69 24 60 24 59 73 13 c40 8 79 15 86 18 8 2 12 27 12 77 l0 74 -86 14
-85 14 -24 59 -24 59 51 74 51 74 -49 50 c-26 27 -53 49 -58 49 -5 0 -40 -22
-77 -49 l-67 -49 -59 23 -58 24 -13 73 c-8 40 -15 79 -18 86 -2 8 -27 12 -78
12 l-74 0 -12 -83z m166 -318 c11 -4 35 -19 53 -34 143 -121 58 -355 -129
-355 -180 0 -270 215 -142 342 58 59 139 76 218 47z"/>
<path d="M20 719 c0 -179 1 -187 26 -237 38 -76 120 -144 249 -207 202 -99
410 -144 711 -152 105 -3 220 -3 256 1 l65 7 -15 45 c-14 43 -11 80 12 135 5
12 -1 20 -23 29 -37 15 -98 80 -106 113 -6 24 -8 24 -178 30 -257 9 -446 44
-634 116 -161 63 -293 163 -341 261 l-22 45 0 -186z"/>
</g>
</svg>
